# xmcd
#
# Track frame offsets:
#	150
#	15536
#	35698
#	59851
#	77516
#	97341
#	117906
#	135606
#	158108
#	175301
#	192943
#
# Disc length: 2893 seconds
#
# Revision: 3
# Processed by: cddbd v1.5.2PL0 Copyright (c) Steve Scherf et al.
# Submitted via: EasyCDDAExtractor 15.3.0.1
#
DISCID=970b4b0b
DTITLE=Fey - Vertigo
DYEAR=2002
DGENRE=Latin
TTITLE0=Dime
TTITLE1=Se Lo Que Vendra
TTITLE2=Vertigo
TTITLE3=Noche Ideal
TTITLE4=Romeo and Juliet
TTITLE5=Loca Por Amarte
TTITLE6=Vienen Y Van
TTITLE7=Alma Gemela
TTITLE8=Gritalo
TTITLE9=Siento Caer
TTITLE10=Siento
EXTD=YEAR: 2002
EXTT0=
EXTT1=
EXTT2=
EXTT3=
EXTT4=
EXTT5=
EXTT6=
EXTT7=
EXTT8=
EXTT9=
EXTT10=
PLAYORDER=
